<?xml version="1.0" encoding="UTF-8"?><svg id="uuid-bd5c4ec0-d12a-432a-9dc2-41c89797ddfa" xmlns="http://www.w3.org/2000/svg" viewBox="0 0 595.28 147.62"><defs><style>.uuid-87eec076-ffc2-4131-8ef1-210ccf04624d{fill:#333;}.uuid-235289d1-ef7a-4a89-82b9-455d3b939547{fill:#e1027a;}.uuid-163385f7-236c-42e5-a7fe-f8f3b95e695e{fill:#58585a;}</style></defs><path class="uuid-163385f7-236c-42e5-a7fe-f8f3b95e695e" d="M70.57,70.17c-.07-5.95-1.8-10.24-5.19-12.88-3.35-2.52-7.81-3.79-13.38-3.79-3.97,0-7.1.49-9.39,1.47-2.33,1.09-4.06,2.41-5.19,3.96-1.09,1.47-1.79,2.87-2.08,4.19-.4,1.4-.6,2.4-.6,3,0,2.87.6,5.11,1.8,6.73,1.13,1.7,2.66,2.92,4.6,3.68,3.9,1.39,8.83,2.87,14.77,4.41,2.33.53,4.58,1.15,6.73,1.87,2.19.6,4.17,1.49,5.96,2.66,1.79,1.09,3.21,2.56,4.27,4.41,1.02,1.85,1.53,4.2,1.53,7.07-.15,5.84-2.35,10.09-6.62,12.73-4.16,2.56-8.9,3.85-14.23,3.85-15.47.07-23.24-7.15-23.32-21.69h2.25c.15,13.03,7.17,19.51,21.07,19.44,4.41,0,8.57-1.09,12.48-3.28,3.94-2.15,5.98-5.73,6.13-10.75,0-2.64-.51-4.81-1.53-6.5-1.13-1.62-2.66-2.92-4.6-3.9-1.79-1.02-3.89-1.88-6.29-2.6-1.13-.38-2.34-.72-3.61-1.02-1.24-.23-2.5-.45-3.78-.68-5.4-1.32-9.71-2.68-12.91-4.07-4.63-1.92-6.95-6.01-6.95-12.27-.08-3.54,1.42-6.86,4.48-9.95,1.57-1.55,3.59-2.79,6.07-3.73,2.44-.83,5.43-1.24,8.96-1.24,13.56-.15,20.5,6.16,20.83,18.92h-2.26Z"/><path class="uuid-163385f7-236c-42e5-a7fe-f8f3b95e695e" d="M85.49,82.82c.07,8.19,1.86,14.91,5.36,20.16,3.54,5.44,9.34,8.19,17.4,8.27,12.47-.08,19.96-6.66,22.48-19.76h2.24c-.88,6.89-3.48,12.25-7.82,16.09-4.41,3.88-9.97,5.85-16.69,5.93-8.83-.08-15.21-3.05-19.15-8.93-4.12-5.8-6.15-13.2-6.07-22.2.15-10.06,2.77-17.74,7.88-23.05,4.85-5.39,10.63-8.08,17.34-8.08,8.97.15,15.5,3.35,19.59,9.6,4.13,6.18,6.01,13.5,5.64,21.97h-48.19ZM131.43,80.57c.08-7.61-1.8-14-5.63-19.18-3.87-5.18-9.57-7.81-17.12-7.89-6.27.08-11.58,2.48-15.92,7.21-4.23,4.73-6.65,11.35-7.27,19.87h45.94Z"/><path class="uuid-163385f7-236c-42e5-a7fe-f8f3b95e695e" d="M143.34,52.6h2.27v14.75h.22c1.2-4.69,3.52-8.55,6.95-11.57,3.31-2.95,7.33-4.46,12.04-4.54,9.53.08,15.46,4.72,17.8,13.94h.22c.6-2.12,1.53-4.06,2.77-5.84,1.24-1.7,2.68-3.14,4.29-4.31,3.32-2.46,7.25-3.72,11.81-3.8,7.08.08,12.06,2.07,14.92,5.99,2.71,3.95,4.03,9.21,3.96,15.76v39.1h-2.26v-39.14c.07-5.96-1.06-10.71-3.4-14.25-2.38-3.39-6.77-5.13-13.19-5.2-5.89.08-10.42,2.15-13.58,6.22-3.25,4.04-4.95,8.9-5.1,14.59v37.78h-2.25v-38.23c.23-5.69-.74-10.48-2.89-14.37-1.17-1.85-2.79-3.32-4.87-4.41-2.15-1.06-4.89-1.58-8.21-1.58-5.96.15-10.64,2.62-14.04,7.41-3.47,4.86-5.21,10.69-5.21,17.48v33.71h-2.26v-59.49Z"/><path class="uuid-163385f7-236c-42e5-a7fe-f8f3b95e695e" d="M237.19,135.09h-2.32v-29.61c-.04-1.05-.08-2.5-.11-4.32-.04-1.83-.06-3.85-.06-6.07s.03-4.57.08-7.03c.06-2.47.18-4.87.37-7.2.19-2.33.44-4.52.76-6.55.32-2.03.74-3.75,1.27-5.14,1.77-5.31,4.69-9.59,8.76-12.83,4.11-3.43,9.21-5.18,15.31-5.25,7.91.19,14.1,3.16,18.59,8.93,4.48,5.65,6.72,13.01,6.72,22.09s-2.16,15.99-6.5,21.98c-4.29,6.03-10.56,9.11-18.81,9.27-12.88-.3-20.83-6.31-23.84-18.02h-.22v39.77ZM237.19,82.09c.37,19.06,8.4,28.7,24.07,28.93,8.17-.15,14.07-3.2,17.68-9.15,3.54-5.84,5.31-12.43,5.31-19.77,0-7.87-1.88-14.54-5.65-20-3.81-5.72-9.59-8.62-17.35-8.7-7.72.08-13.63,2.98-17.74,8.7-4.22,5.46-6.33,12.13-6.33,20Z"/><path class="uuid-163385f7-236c-42e5-a7fe-f8f3b95e695e" d="M296.63,29.49h2.25v82.6h-2.25V29.49Z"/><path class="uuid-163385f7-236c-42e5-a7fe-f8f3b95e695e" d="M313.91,41.13h-2.25v-11.63h2.25v11.63ZM313.91,112.09h-2.25v-59.49h2.25v59.49Z"/><path class="uuid-163385f7-236c-42e5-a7fe-f8f3b95e695e" d="M378.15,108.33c-5.17,3.51-11.46,5.26-18.86,5.26-4.63,0-9.01-.85-13.13-2.55-4.13-1.7-7.73-4.01-10.82-6.94-3.08-2.93-5.53-6.42-7.35-10.47-1.81-4.05-2.72-8.43-2.72-13.13s.9-8.97,2.72-13.02c1.81-4.05,4.26-7.58,7.35-10.59,3.09-3.01,6.69-5.38,10.82-7.12,4.13-1.74,8.5-2.6,13.13-2.6,3.47,0,6.81.46,10.01,1.39,3.2.93,6.17,2.3,8.91,4.11,2.74,1.81,5.19,3.99,7.35,6.54,2.16,2.55,3.89,5.44,5.21,8.68h-8.91c-2.24-4.17-5.32-7.44-9.26-9.84-3.93-2.39-8.29-3.59-13.08-3.59-3.63,0-7.02.66-10.18,1.97-3.16,1.31-5.94,3.12-8.33,5.44-2.39,2.31-4.27,5.05-5.61,8.21-1.35,3.16-2.02,6.56-2.02,10.18s.67,7.14,2.02,10.3c1.35,3.16,3.2,5.9,5.55,8.22,2.35,2.31,5.11,4.15,8.27,5.5,3.16,1.35,6.59,2.02,10.3,2.02,4.71,0,9.04-1.08,13.02-3.24,3.97-2.16,7.08-5.36,9.32-9.6h8.91c-3.24,6.4-7.45,11.36-12.61,14.87Z"/><path class="uuid-87eec076-ffc2-4131-8ef1-210ccf04624d" d="M517.35,113.08c.33-.13.63-.29.95-.43-.32-.17-.64-.34-.95-.51v.94Z"/><path class="uuid-87eec076-ffc2-4131-8ef1-210ccf04624d" d="M562.78,68.47c-1.74-4.13-4.11-7.73-7.12-10.82-3.01-3.08-6.54-5.53-10.59-7.35-4.05-1.81-8.39-2.72-13.02-2.72s-9.08.9-13.13,2.72c-.2.09-.38.2-.58.29-.2-.09-.38-.2-.58-.29-4.05-1.81-8.39-2.72-13.02-2.72s-9.08.9-13.13,2.72c-4.05,1.81-7.54,4.26-10.47,7.35-2.93,3.09-5.25,6.69-6.94,10.82-1.7,4.13-2.55,8.5-2.55,13.13,0,7.4,1.75,13.69,5.26,18.86,3.51,5.17,8.47,9.37,14.87,12.61v-8.91c-4.24-2.24-7.45-5.34-9.6-9.32-2.16-3.97-3.24-8.31-3.24-13.02,0-3.7.67-7.13,2.02-10.3,1.35-3.17,3.18-5.92,5.5-8.27,2.31-2.35,5.05-4.21,8.22-5.55,3.16-1.35,6.59-2.02,10.3-2.02,1.74,0,3.41.16,5.04.47-.53.49-1.07.97-1.57,1.49-2.93,3.09-5.25,6.69-6.94,10.82-1.7,4.13-2.55,8.5-2.55,13.13,0,3.53.41,6.8,1.21,9.83h7.77c-1.12-3.01-1.69-6.21-1.69-9.6,0-3.7.67-7.13,2.02-10.3,1.35-3.17,3.18-5.92,5.5-8.27,1.43-1.45,3.04-2.69,4.79-3.76,1.76,1.08,3.37,2.34,4.81,3.82,2.31,2.39,4.13,5.17,5.44,8.33,1.31,3.16,1.97,6.56,1.97,10.18,0,3.42-.62,6.61-1.84,9.6h7.79c.89-3.15,1.34-6.42,1.34-9.83,0-4.63-.87-9.01-2.6-13.13-1.74-4.13-4.11-7.73-7.12-10.82-.49-.5-1.02-.96-1.53-1.43,1.75-.35,3.58-.54,5.47-.54,3.62,0,7.02.67,10.18,2.02,3.16,1.35,5.9,3.22,8.21,5.61,2.31,2.39,4.13,5.17,5.44,8.33,1.31,3.16,1.97,6.56,1.97,10.18,0,4.78-1.2,9.14-3.59,13.08-2.39,3.94-5.67,7.02-9.84,9.26v8.91c3.24-1.31,6.13-3.05,8.68-5.21,2.55-2.16,4.72-4.61,6.54-7.35,1.81-2.74,3.18-5.71,4.11-8.91.93-3.2,1.39-6.54,1.39-10.01,0-4.63-.87-9.01-2.6-13.13Z"/><path class="uuid-163385f7-236c-42e5-a7fe-f8f3b95e695e" d="M460.3,60.2c3.51,5.17,5.26,11.46,5.26,18.86,0,4.63-.85,9.01-2.55,13.13-1.7,4.13-4.01,7.73-6.94,10.82-2.93,3.08-6.42,5.53-10.47,7.35-4.05,1.81-8.43,2.72-13.13,2.72s-8.97-.9-13.02-2.72c-4.05-1.81-7.58-4.26-10.59-7.35-3.01-3.09-5.38-6.69-7.12-10.82-1.74-4.13-2.6-8.5-2.6-13.13,0-3.47.46-6.81,1.39-10.01.93-3.2,2.3-6.17,4.11-8.91,1.81-2.74,3.99-5.19,6.54-7.35s5.44-3.89,8.68-5.21v8.91c-4.17,2.24-7.44,5.32-9.84,9.26-2.39,3.93-3.59,8.29-3.59,13.08,0,3.63.66,7.02,1.97,10.18,1.31,3.16,3.12,5.94,5.44,8.33,2.31,2.39,5.05,4.27,8.21,5.61,3.16,1.35,6.56,2.02,10.18,2.02s7.14-.67,10.3-2.02c3.16-1.35,5.9-3.2,8.22-5.55,2.31-2.35,4.15-5.11,5.5-8.27,1.35-3.16,2.02-6.59,2.02-10.3,0-4.71-1.08-9.04-3.24-13.02-2.16-3.97-5.36-7.08-9.6-9.32v-8.91c6.4,3.24,11.36,7.45,14.87,12.61Z"/><circle class="uuid-235289d1-ef7a-4a89-82b9-455d3b939547" cx="376.26" cy="80.33" r="9.48"/><circle class="uuid-235289d1-ef7a-4a89-82b9-455d3b939547" cx="432.36" cy="41.13" r="9.48"/><circle class="uuid-235289d1-ef7a-4a89-82b9-455d3b939547" cx="518.56" cy="103.65" r="9.48"/></svg>