<?xml version="1.0" encoding="UTF-8"?>
<svg id="uuid-9cb7ef43-509e-4b07-81d5-3d9007a213ac" xmlns="http://www.w3.org/2000/svg" version="1.1" viewBox="0 0 595.28 508.92">
  <!-- Generator: Adobe Illustrator 29.8.2, SVG Export Plug-In . SVG Version: 2.1.1 Build 3)  -->
  <defs>
    <style>
      .st0 {
        fill: #605f5f;
      }

      .st1 {
        fill: #e00079;
      }

      .st2 {
        fill: #575759;
      }

      .st3 {
        fill: #333;
      }
    </style>
  </defs>
  <g>
    <path class="st2" d="M200.8,220.99c-.07-5.73-1.73-9.86-4.99-12.4-3.22-2.43-7.51-3.64-12.87-3.64-3.82,0-6.83.47-9.04,1.42-2.24,1.05-3.91,2.32-4.99,3.81-1.05,1.42-1.72,2.76-2,4.03-.38,1.34-.58,2.31-.58,2.89,0,2.76.58,4.92,1.74,6.48,1.09,1.63,2.56,2.81,4.42,3.54,3.76,1.34,8.5,2.76,14.22,4.25,2.25.51,4.41,1.11,6.48,1.8,2.11.58,4.02,1.43,5.74,2.56,1.72,1.05,3.09,2.47,4.11,4.25.98,1.78,1.47,4.05,1.47,6.81-.14,5.63-2.26,9.71-6.37,12.25-4,2.47-8.57,3.7-13.7,3.7-14.89.07-22.37-6.89-22.44-20.88h2.16c.14,12.54,6.9,18.78,20.28,18.71,4.25,0,8.25-1.05,12.01-3.16,3.79-2.07,5.76-5.52,5.9-10.34,0-2.54-.49-4.63-1.47-6.26-1.09-1.56-2.56-2.81-4.42-3.76-1.72-.98-3.74-1.81-6.06-2.5-1.09-.36-2.25-.69-3.48-.98-1.19-.22-2.41-.44-3.63-.65-5.2-1.27-9.34-2.58-12.43-3.92-4.46-1.85-6.69-5.79-6.69-11.81-.07-3.41,1.36-6.6,4.31-9.58,1.51-1.49,3.46-2.69,5.84-3.59,2.35-.8,5.23-1.2,8.63-1.2,13.05-.14,19.73,5.93,20.04,18.21h-2.18Z"/>
    <path class="st2" d="M215.16,233.17c.07,7.89,1.79,14.35,5.16,19.4,3.41,5.23,8.99,7.89,16.74,7.96,12-.07,19.21-6.41,21.64-19.02h2.16c-.84,6.63-3.35,11.79-7.53,15.49-4.25,3.73-9.6,5.63-16.06,5.71-8.5-.07-14.64-2.94-18.43-8.59-3.97-5.58-5.92-12.71-5.84-21.37.14-9.68,2.67-17.08,7.58-22.19,4.67-5.18,10.23-7.78,16.69-7.78,8.64.15,14.92,3.23,18.85,9.24,3.98,5.94,5.79,12.99,5.42,21.15h-46.38ZM259.38,231c.07-7.32-1.74-13.47-5.42-18.46-3.72-4.99-9.21-7.52-16.48-7.59-6.04.07-11.14,2.39-15.32,6.94-4.07,4.55-6.4,10.93-7,19.12h44.22Z"/>
    <path class="st2" d="M270.84,204.08h2.18v14.2h.21c1.16-4.51,3.39-8.22,6.69-11.14,3.19-2.84,7.05-4.29,11.59-4.37,9.17.07,14.88,4.55,17.13,13.42h.22c.58-2.04,1.47-3.91,2.66-5.62,1.2-1.64,2.57-3.02,4.13-4.15,3.19-2.36,6.98-3.58,11.37-3.65,6.82.07,11.6,1.99,14.36,5.76,2.61,3.81,3.88,8.86,3.81,15.17v37.63h-2.17v-37.67c.07-5.73-1.02-10.31-3.27-13.72-2.29-3.27-6.52-4.93-12.69-5.01-5.67.07-10.02,2.07-13.07,5.99-3.13,3.88-4.76,8.57-4.9,14.04v36.36h-2.16v-36.8c.22-5.48-.71-10.09-2.78-13.83-1.13-1.78-2.69-3.19-4.69-4.25-2.07-1.02-4.7-1.52-7.9-1.52-5.74.15-10.24,2.52-13.51,7.13-3.34,4.68-5.01,10.29-5.01,16.82v32.44h-2.17v-57.26Z"/>
    <path class="st2" d="M361.17,283.47h-2.23v-28.49c-.04-1.01-.07-2.4-.11-4.16-.04-1.76-.05-3.71-.05-5.85s.03-4.4.08-6.77c.05-2.37.17-4.69.35-6.93.18-2.25.43-4.35.73-6.31.31-1.96.72-3.61,1.22-4.95,1.7-5.11,4.51-9.23,8.43-12.34,3.95-3.3,8.86-4.98,14.74-5.06,7.61.18,13.57,3.05,17.89,8.59,4.31,5.44,6.47,12.53,6.47,21.26s-2.08,15.39-6.25,21.15c-4.13,5.8-10.17,8.77-18.11,8.92-12.4-.29-20.05-6.07-22.95-17.35h-.22v38.28ZM361.17,232.46c.36,18.34,8.08,27.62,23.16,27.84,7.87-.14,13.54-3.08,17.02-8.81,3.41-5.62,5.11-11.96,5.11-19.03,0-7.58-1.81-13.99-5.44-19.25-3.66-5.51-9.23-8.3-16.69-8.37-7.43.07-13.12,2.86-17.08,8.37-4.06,5.26-6.09,11.67-6.09,19.25Z"/>
    <path class="st2" d="M418.38,181.84h2.16v79.5h-2.16v-79.5Z"/>
    <path class="st2" d="M435.01,193.04h-2.16v-11.2h2.16v11.2ZM435.01,261.34h-2.16v-57.26h2.16v57.26Z"/>
    <path class="st2" d="M234.14,357.28c-4.98,3.38-11.03,5.07-18.15,5.07-4.45,0-8.67-.82-12.64-2.45-3.97-1.63-7.44-3.86-10.41-6.68-2.97-2.82-5.33-6.18-7.07-10.08-1.75-3.9-2.62-8.11-2.62-12.64s.87-8.63,2.62-12.53c1.74-3.9,4.1-7.29,7.07-10.19,2.97-2.9,6.44-5.18,10.41-6.85,3.97-1.67,8.19-2.51,12.64-2.51,3.34,0,6.55.45,9.63,1.34,3.08.89,5.94,2.21,8.58,3.95,2.63,1.75,4.99,3.84,7.07,6.29,2.08,2.45,3.75,5.23,5.01,8.35h-8.58c-2.15-4.01-5.12-7.16-8.91-9.47-3.79-2.3-7.98-3.45-12.59-3.45-3.49,0-6.76.63-9.8,1.89-3.04,1.26-5.72,3.01-8.02,5.23-2.3,2.23-4.11,4.86-5.4,7.91-1.3,3.05-1.95,6.31-1.95,9.8s.65,6.87,1.95,9.91c1.3,3.05,3.08,5.68,5.35,7.91,2.26,2.23,4.92,3.99,7.96,5.29,3.04,1.3,6.35,1.95,9.91,1.95,4.53,0,8.7-1.04,12.53-3.12,3.82-2.08,6.81-5.16,8.97-9.24h8.58c-3.12,6.16-7.17,10.93-12.14,14.31Z"/>
    <g>
      <path class="st3" d="M368.12,361.84c.31-.13.61-.28.91-.41-.31-.16-.61-.33-.91-.49v.91Z"/>
      <path class="st3" d="M411.83,318.91c-1.67-3.97-3.95-7.44-6.85-10.41-2.9-2.97-6.29-5.33-10.19-7.07-3.9-1.75-8.07-2.62-12.53-2.62s-8.74.87-12.64,2.62c-.19.09-.37.19-.56.28-.19-.09-.37-.2-.56-.28-3.9-1.75-8.07-2.62-12.53-2.62s-8.74.87-12.64,2.62c-3.9,1.74-7.26,4.1-10.08,7.07-2.82,2.97-5.05,6.44-6.68,10.41-1.63,3.97-2.45,8.19-2.45,12.64,0,7.13,1.69,13.18,5.07,18.15,3.38,4.97,8.15,9.02,14.31,12.14v-8.58c-4.08-2.15-7.17-5.14-9.24-8.97-2.08-3.82-3.12-8-3.12-12.53,0-3.56.65-6.87,1.95-9.91,1.3-3.05,3.06-5.7,5.29-7.96,2.23-2.27,4.86-4.05,7.91-5.35,3.04-1.3,6.35-1.95,9.91-1.95,1.67,0,3.29.16,4.85.46-.51.47-1.03.93-1.51,1.44-2.82,2.97-5.05,6.44-6.68,10.41-1.63,3.97-2.45,8.19-2.45,12.64,0,3.4.4,6.55,1.16,9.46h7.48c-1.08-2.9-1.63-5.97-1.63-9.24,0-3.56.65-6.87,1.95-9.91,1.3-3.05,3.06-5.7,5.29-7.96,1.38-1.4,2.92-2.59,4.61-3.62,1.69,1.04,3.25,2.25,4.63,3.68,2.23,2.3,3.97,4.97,5.23,8.02,1.26,3.04,1.89,6.31,1.89,9.8,0,3.29-.6,6.37-1.77,9.24h7.5c.86-3.03,1.29-6.18,1.29-9.46,0-4.45-.84-8.67-2.51-12.64-1.67-3.97-3.95-7.44-6.85-10.41-.47-.48-.98-.93-1.48-1.38,1.69-.34,3.44-.52,5.27-.52,3.49,0,6.76.65,9.8,1.95,3.04,1.3,5.68,3.1,7.91,5.4,2.23,2.3,3.97,4.97,5.23,8.02,1.26,3.04,1.89,6.31,1.89,9.8,0,4.61-1.15,8.8-3.45,12.59-2.3,3.79-5.46,6.76-9.47,8.91v8.58c3.12-1.26,5.9-2.93,8.35-5.01,2.45-2.08,4.55-4.44,6.29-7.07,1.74-2.64,3.06-5.5,3.95-8.58.89-3.08,1.34-6.29,1.34-9.63,0-4.45-.84-8.67-2.51-12.64Z"/>
    </g>
    <path class="st2" d="M313.21,310.95c3.38,4.98,5.07,11.03,5.07,18.15,0,4.45-.82,8.67-2.45,12.64-1.63,3.97-3.86,7.44-6.68,10.41-2.82,2.97-6.18,5.33-10.08,7.07-3.9,1.75-8.11,2.62-12.64,2.62s-8.63-.87-12.53-2.62c-3.9-1.74-7.29-4.1-10.19-7.07-2.9-2.97-5.18-6.44-6.85-10.41-1.67-3.97-2.51-8.19-2.51-12.64,0-3.34.45-6.55,1.34-9.63.89-3.08,2.21-5.94,3.95-8.58,1.75-2.63,3.84-4.99,6.29-7.07s5.23-3.75,8.35-5.01v8.58c-4.01,2.15-7.16,5.12-9.47,8.91-2.3,3.79-3.45,7.98-3.45,12.59,0,3.49.63,6.76,1.89,9.8,1.26,3.04,3.01,5.72,5.23,8.02,2.23,2.3,4.86,4.11,7.91,5.4,3.05,1.3,6.31,1.95,9.8,1.95s6.87-.65,9.91-1.95c3.05-1.3,5.68-3.08,7.91-5.35,2.23-2.26,3.99-4.92,5.29-7.96,1.3-3.04,1.95-6.35,1.95-9.91,0-4.53-1.04-8.7-3.12-12.53-2.08-3.82-5.16-6.81-9.24-8.97v-8.58c6.16,3.12,10.93,7.17,14.31,12.14Z"/>
    <circle class="st1" cx="232.32" cy="330.33" r="9.12"/>
    <circle class="st1" cx="286.31" cy="292.59" r="9.12"/>
    <circle class="st1" cx="369.28" cy="352.77" r="9.12"/>
  </g>
  <circle class="st1" cx="298.5" cy="81.25" r="64.44"/>
  <path class="st0" d="M488.47,131.7c23.87,35.15,35.79,77.89,35.79,128.23,0,31.46-5.78,61.23-17.3,89.27-11.53,28.06-27.26,52.58-47.19,73.56-19.93,20.96-43.66,37.62-71.19,49.94-27.53,12.34-57.28,18.49-89.28,18.49s-60.96-6.15-88.49-18.49c-27.53-12.32-51.52-28.98-71.98-49.94-20.45-20.98-36.58-45.5-48.38-73.56-11.8-28.04-17.7-57.82-17.7-89.27,0-23.6,3.14-46.27,9.44-68.05,6.29-21.76,15.61-41.95,27.92-60.57,12.33-18.6,27.14-35.26,44.45-49.94,17.3-14.68,36.97-26.48,59-35.4v60.57c-28.32,15.21-50.6,36.18-66.86,62.93-16.25,26.74-24.39,56.37-24.39,88.9,0,24.65,4.46,47.72,13.37,69.22,8.93,21.5,21.24,40.38,36.98,56.63,15.73,16.26,34.35,29,55.85,38.16,21.51,9.18,44.58,13.76,69.22,13.76s48.51-4.58,70.01-13.76c21.51-9.16,40.12-21.76,55.85-37.76,15.73-15.99,28.19-34.73,37.37-56.25,9.18-21.5,13.76-44.82,13.76-69.99,0-31.99-7.34-61.48-22.03-88.5-14.68-27.01-36.44-48.12-65.29-63.33v-60.57c43.54,22.04,77.23,50.62,101.08,85.74Z"/>
</svg>